<svg width="20" height="14" viewBox="0 0 20 14" fill="none" xmlns="http://www.w3.org/2000/svg">
<path fill-rule="evenodd" clip-rule="evenodd" d="M19.8 6.9999C19.8 7.18555 19.7263 7.3636 19.595 7.49487C19.4637 7.62615 19.2857 7.6999 19.1 7.6999L2.58982 7.6999L6.99562 12.1043C7.12706 12.2357 7.2009 12.414 7.2009 12.5999C7.2009 12.7858 7.12706 12.9641 6.99562 13.0955C6.86418 13.2269 6.6859 13.3008 6.50002 13.3008C6.31413 13.3008 6.13586 13.2269 6.00442 13.0955L0.404417 7.4955C0.339227 7.43048 0.287507 7.35323 0.25222 7.26819C0.21693 7.18314 0.198766 7.09197 0.198766 6.9999C0.198766 6.90782 0.21693 6.81666 0.25222 6.73161C0.287507 6.64657 0.339227 6.56932 0.404416 6.5043L6.00442 0.904299C6.13586 0.772857 6.31413 0.699015 6.50002 0.699015C6.6859 0.699015 6.86417 0.772857 6.99562 0.904299C7.12706 1.03574 7.2009 1.21401 7.2009 1.3999C7.2009 1.58579 7.12706 1.76406 6.99562 1.8955L2.58982 6.2999L19.1 6.2999C19.2857 6.2999 19.4637 6.37365 19.595 6.50492C19.7263 6.6362 19.8 6.81425 19.8 6.9999Z" fill="#0A142F"/>
</svg>
