<svg width="48" height="48" viewBox="0 0 48 48" fill="none" xmlns="http://www.w3.org/2000/svg">
<path d="M14 23.3444V34H24.6556L22.4333 31.7778H16.2222V25.5667L14 23.3444Z" fill="#FFC93E"/>
<path d="M42.7444 39.8778L39.5555 36.6444V39.5555H8.44444V34.9444H10.6667V33.1666H8.44444V25.7778H10.6667V24H8.44444V16.8889H10.6667V15.1111H8.44444V8.89998L26.1556 26.5111V23.3778L8.12222 5.43331C7.96681 5.27661 7.76825 5.16975 7.55186 5.12634C7.33548 5.08293 7.11106 5.10494 6.90724 5.18957C6.70341 5.2742 6.5294 5.41761 6.4074 5.60152C6.2854 5.78543 6.22093 6.00151 6.22222 6.2222V40.6666C6.22222 40.9613 6.33928 41.2439 6.54765 41.4523C6.75603 41.6607 7.03864 41.7778 7.33333 41.7778H41.9555C42.1762 41.779 42.3923 41.7146 42.5762 41.5926C42.7601 41.4706 42.9035 41.2966 42.9882 41.0927C43.0728 40.8889 43.0948 40.6645 43.0514 40.4481C43.008 40.2317 42.9011 40.0332 42.7444 39.8778Z" fill="#FFC93E"/>
<path d="M30.6666 37.3333H35.1111C35.7005 37.3333 36.2657 37.0992 36.6824 36.6824C37.0992 36.2657 37.3333 35.7005 37.3333 35.1111V13.6667L34.7778 8.96666C34.5801 8.62424 34.2947 8.34074 33.9509 8.14543C33.6072 7.95011 33.2175 7.85004 32.8222 7.85555C32.4179 7.85875 32.0222 7.97219 31.6776 8.18365C31.333 8.3951 31.0526 8.69656 30.8666 9.05555L28.4444 13.6889V35.1111C28.4444 35.7005 28.6786 36.2657 29.0953 36.6824C29.512 37.0992 30.0773 37.3333 30.6666 37.3333ZM30.6666 14.2222L32.8222 10.0333L35.1111 14.2333V30.6667H30.6666V14.2222ZM30.6666 32.4778H35.1111V35.1889H30.6666V32.4778Z" fill="#FFC93E"/>
</svg>
