<svg width="19" height="20" viewBox="0 0 19 20" fill="none" xmlns="http://www.w3.org/2000/svg">
<path d="M1.50002 20.0001C1.27901 20.0001 1.06705 19.9123 0.910765 19.756C0.754485 19.5997 0.666687 19.3878 0.666687 19.1668V0.833435C0.666712 0.688626 0.704471 0.546323 0.776243 0.420552C0.848015 0.29478 0.951322 0.189882 1.07598 0.116197C1.20064 0.0425113 1.34235 0.00258151 1.48714 0.000343676C1.63193 -0.00189416 1.77481 0.0336372 1.90169 0.103435L18.5684 9.2701C18.699 9.34204 18.808 9.44772 18.8838 9.57613C18.9597 9.70453 18.9998 9.85095 18.9998 10.0001C18.9998 10.1493 18.9597 10.2957 18.8838 10.4241C18.808 10.5525 18.699 10.6582 18.5684 10.7301L1.90169 19.8968C1.77865 19.9645 1.64048 20.0001 1.50002 20.0001Z" fill="#FFC93E"/>
</svg>
