<svg width="62" height="48" viewBox="0 0 62 48" fill="none" xmlns="http://www.w3.org/2000/svg">
<g opacity="0.2" clip-path="url(#clip0_1_549)">
<path d="M28.8 35.46C28.8729 37.1634 28.5695 38.862 27.9113 40.4349C27.2531 42.0077 26.2564 43.4162 24.992 44.56L24.982 44.568C22.3641 46.8892 18.9547 48.1163 15.458 47.996H15.48C13.3664 48.1103 11.2536 47.7577 9.29166 46.9634C7.32971 46.1691 5.56674 44.9525 4.12799 43.4L4.11999 43.392C1.23557 39.9692 -0.235642 35.5756 0.00598724 31.106L0.00398724 31.148C-0.130058 26.5064 0.732665 21.8899 2.53399 17.61L2.45399 17.824C3.89221 14.4683 5.8877 11.3801 8.35599 8.68999L8.33399 8.71399C10.3732 6.5018 12.736 4.61164 15.342 3.10799L15.486 3.03199C17.457 1.89496 19.5139 0.91396 21.638 0.0979902L21.95 -0.00800977L28.218 10.572C25.6133 11.6229 23.3271 13.3336 21.584 15.536L21.558 15.57C19.8224 17.6374 18.7338 20.17 18.428 22.852L18.422 22.916C19.7859 22.9501 21.1272 23.2721 22.358 23.8608C23.5888 24.4495 24.6813 25.2916 25.564 26.332L25.576 26.346C27.8202 28.8448 28.9811 32.132 28.804 35.486L28.806 35.456L28.8 35.46ZM62.696 35.46C62.7681 37.1638 62.4642 38.8626 61.8057 40.4357C61.1472 42.0088 60.1504 43.4176 58.886 44.562L58.876 44.57C56.2586 46.8921 52.8489 48.1194 49.352 47.998H49.374C47.2604 48.1128 45.1474 47.7605 43.1854 46.9662C41.2233 46.1718 39.4604 44.9549 38.022 43.402L38.014 43.392C35.1284 39.9691 33.657 35.5744 33.9 31.104L33.898 31.146C33.7639 26.5044 34.6267 21.8879 36.428 17.608L36.348 17.822C37.7855 14.4669 39.7796 11.3788 42.246 8.68799L42.224 8.71199C44.2639 6.49975 46.6274 4.6096 49.234 3.10599L49.378 3.02999C51.3485 1.89216 53.4056 0.911128 55.53 0.0959902L55.842 -0.0100098L62.108 10.57C59.503 11.6222 57.2167 13.3343 55.474 15.538L55.448 15.572C53.7124 17.6394 52.6238 20.172 52.318 22.854L52.312 22.918C53.6754 22.952 55.0162 23.2739 56.2463 23.8626C57.4765 24.4513 58.5683 25.2935 59.45 26.334L59.462 26.348C61.7086 28.8449 62.8719 32.1317 62.696 35.486L62.698 35.456L62.696 35.46Z" fill="#F3F5F6"/>
</g>
<defs>
<clipPath id="clip0_1_549">
<rect width="62" height="48" fill="white"/>
</clipPath>
</defs>
</svg>
