<svg width="150" height="150" viewBox="0 0 150 150" fill="none" xmlns="http://www.w3.org/2000/svg">
<g filter="url(#filter0_b_237_313)">
<circle cx="75" cy="75" r="75" fill="white" fill-opacity="0.5"/>
</g>
<path d="M56.9145 115.416C57.6555 115.763 58.222 116.257 58.614 116.897C59.0042 117.541 59.1987 118.281 59.1973 119.118C59.1942 119.959 58.9721 120.85 58.5312 121.792C58.0939 122.725 57.5543 123.461 56.9123 123.998C56.2703 124.535 55.5761 124.857 54.8296 124.964C54.0832 125.071 53.3356 124.949 52.5869 124.598C52.008 124.327 51.5959 124.016 51.3505 123.666C51.0994 123.318 50.9421 122.981 50.8784 122.655C50.809 122.33 50.7603 122.068 50.7323 121.866L50.6165 121.812L48.5673 126.188L47.2011 125.549L52.7525 113.693L54.0723 114.311L53.4326 115.677L53.5947 115.753C53.7709 115.638 54.0095 115.501 54.3104 115.34C54.6095 115.184 54.9759 115.09 55.4098 115.057C55.8418 115.029 56.3434 115.149 56.9145 115.416ZM56.1547 116.557C55.6066 116.3 55.0767 116.226 54.5647 116.335C54.051 116.447 53.5765 116.712 53.1411 117.129C52.7039 117.55 52.3281 118.096 52.0137 118.768C51.7029 119.432 51.5274 120.058 51.4873 120.646C51.4453 121.238 51.5484 121.761 51.7965 122.216C52.0427 122.675 52.4438 123.035 52.9995 123.295C53.5784 123.566 54.1303 123.643 54.6554 123.527C55.1748 123.412 55.6494 123.148 56.0791 122.732C56.5031 122.319 56.8615 121.8 57.1542 121.175C57.4506 120.542 57.6233 119.922 57.6725 119.314C57.7161 118.709 57.6182 118.164 57.3789 117.681C57.1339 117.199 56.7258 116.824 56.1547 116.557Z" fill="black"/>
<path d="M47.0704 108.962C47.5365 109.374 47.8819 109.836 48.1066 110.347C48.3285 110.862 48.4031 111.386 48.3302 111.918C48.2545 112.454 48.005 112.962 47.5817 113.441C47.2091 113.862 46.8241 114.13 46.4267 114.245C46.0264 114.364 45.621 114.375 45.2106 114.28C44.8002 114.184 44.3949 114.025 43.9948 113.802C43.5886 113.579 43.1949 113.34 42.8138 113.082C42.316 112.745 41.9155 112.467 41.6124 112.251C41.3032 112.034 41.0523 111.906 40.8597 111.867C40.6638 111.824 40.4855 111.894 40.3246 112.076L40.2908 112.115C39.873 112.587 39.6778 113.069 39.705 113.559C39.729 114.047 40.0012 114.52 40.5216 114.98C41.0612 115.457 41.5886 115.713 42.104 115.748C42.6193 115.783 43.0578 115.721 43.4194 115.563L44.1535 116.894C43.5668 117.172 43.0038 117.294 42.4643 117.261C41.9189 117.228 41.4125 117.093 40.945 116.856C40.4716 116.62 40.0497 116.338 39.6793 116.01C39.4431 115.802 39.1971 115.533 38.9414 115.205C38.6797 114.877 38.4813 114.499 38.3464 114.073C38.2083 113.644 38.1972 113.17 38.3133 112.653C38.4294 112.136 38.7456 111.585 39.2621 111.001L43.5464 106.154L44.6766 107.153L43.7961 108.149L43.8535 108.2C44.0713 108.108 44.35 108.05 44.6897 108.026C45.0293 108.002 45.4041 108.058 45.8139 108.192C46.2237 108.327 46.6425 108.584 47.0704 108.962ZM46.0005 109.825C45.5535 109.43 45.0991 109.184 44.6374 109.089C44.1725 108.991 43.739 109.012 43.337 109.151C42.9318 109.288 42.5938 109.509 42.3228 109.816L41.4084 110.85C41.5071 110.835 41.659 110.876 41.8642 110.972C42.0633 111.068 42.2838 111.192 42.5256 111.343C42.7613 111.494 42.9894 111.645 43.21 111.794C43.4245 111.944 43.5995 112.065 43.7349 112.156C44.0625 112.377 44.3921 112.558 44.7237 112.697C45.0494 112.837 45.3652 112.892 45.6712 112.861C45.9712 112.83 46.2482 112.671 46.5022 112.384C46.8494 111.991 46.9666 111.566 46.8538 111.108C46.7351 110.651 46.4506 110.223 46.0005 109.825Z" fill="black"/>
<path d="M29.1066 108.732L39.7488 101.109L40.6273 102.335L29.985 109.959L29.1066 108.732Z" fill="black"/>
<path d="M36.7356 96.0066L27.8875 100.262L27.2337 98.9026L36.0817 94.6471L36.7356 96.0066ZM26.0804 100.28C26.2078 100.545 26.2275 100.817 26.1393 101.096C26.0493 101.371 25.8776 101.569 25.6241 101.691C25.3707 101.813 25.1085 101.823 24.8375 101.722C24.5646 101.617 24.3645 101.432 24.237 101.167C24.1096 100.902 24.0909 100.632 24.1809 100.357C24.269 100.078 24.4398 99.8774 24.6933 99.7555C24.9467 99.6336 25.2099 99.6253 25.4827 99.7305C25.7537 99.8319 25.9529 100.015 26.0804 100.28Z" fill="black"/>
<path d="M33.2787 85.4513C33.4747 86.3157 33.441 87.1208 33.1775 87.8665C32.9131 88.6081 32.4524 89.2457 31.7956 89.7791C31.1379 90.3084 30.3144 90.6852 29.3253 90.9095C28.3279 91.1357 27.4163 91.1523 26.5904 90.9594C25.7636 90.7624 25.071 90.3864 24.5125 89.8313C23.9531 89.2722 23.5754 88.5604 23.3794 87.6959C23.1834 86.8315 23.2176 86.0285 23.4821 85.2869C23.7455 84.5411 24.2082 83.9031 24.8701 83.3729C25.5311 82.8385 26.3603 82.4582 27.3577 82.2321C28.3468 82.0078 29.2527 81.9946 30.0754 82.1926C30.8971 82.3864 31.5876 82.7629 32.147 83.3221C32.7055 83.8771 33.0827 84.5868 33.2787 85.4513ZM31.9571 85.7509C31.8082 85.0943 31.5174 84.5922 31.0847 84.2446C30.6519 83.8971 30.1382 83.6837 29.5434 83.6044C28.9487 83.5252 28.3313 83.5581 27.6913 83.7032C27.0513 83.8483 26.478 84.0854 25.9715 84.4144C25.4649 84.7433 25.0893 85.1584 24.8446 85.6596C24.6 86.1607 24.5521 86.7396 24.701 87.3963C24.8499 88.0529 25.1428 88.5545 25.5797 88.9011C26.0166 89.2478 26.5345 89.4602 27.1334 89.5385C27.7323 89.6168 28.3518 89.5834 28.9918 89.4383C29.6318 89.2932 30.203 89.0566 30.7054 88.7286C31.2078 88.4006 31.5792 87.9864 31.8197 87.4862C32.0602 86.986 32.106 86.4075 31.9571 85.7509Z" fill="black"/>
<path d="M27.7488 65.6624L25.032 64.9281L25.965 67.585L24.7803 67.9405L24.0754 65.2052L22.2396 67.3519L21.332 66.5118L23.3382 64.5357L20.5751 64.0007L20.8521 62.8051L23.569 63.5394L22.636 60.8825L23.8206 60.527L24.5255 63.2623L26.3613 61.1155L27.269 61.9557L25.2627 63.9317L28.0258 64.4668L27.7488 65.6624Z" fill="#FFC93E"/>
<path d="M42.2939 49.1109L39.7051 52.2122L29.6554 43.8232L32.3589 40.5845C33.1727 39.6096 34.0702 38.9434 35.0515 38.5857C36.0295 38.2253 37.0474 38.173 38.1052 38.4287C39.1596 38.6816 40.207 39.2423 41.2473 40.1107C42.2941 40.9845 43.0398 41.9233 43.4841 42.9271C43.9253 43.9281 44.051 44.9545 43.8613 46.0063C43.6684 47.0553 43.1459 48.0902 42.2939 49.1109ZM39.6414 50.094L41.1488 48.2882C41.8424 47.4573 42.257 46.6349 42.3924 45.8209C42.5279 45.007 42.4115 44.2187 42.0433 43.4562C41.6751 42.6937 41.0821 41.9711 40.2642 41.2884C39.4529 40.6111 38.6439 40.1606 37.8371 39.9368C37.0271 39.7102 36.2452 39.7292 35.4915 39.9938C34.7345 40.2556 34.0283 40.779 33.3729 41.5642L31.7508 43.5074L39.6414 50.094Z" fill="black"/>
<path d="M49.1664 42.5759L43.3616 34.6576L44.5782 33.7657L50.3831 41.684L49.1664 42.5759ZM43.0127 32.8843C42.7756 33.0582 42.5119 33.1273 42.2217 33.0918C41.9348 33.0537 41.7083 32.9212 41.542 32.6944C41.3757 32.4676 41.3176 32.2117 41.3676 31.9267C41.421 31.6392 41.5663 31.4085 41.8034 31.2347C42.0405 31.0608 42.3025 30.993 42.5893 31.031C42.8796 31.0666 43.1079 31.1978 43.2741 31.4246C43.4404 31.6514 43.4969 31.9086 43.4434 32.1961C43.3934 32.4811 43.2499 32.7105 43.0127 32.8843Z" fill="black"/>
<path d="M60.3445 40.6341C59.6755 40.9228 59.0631 41.0848 58.5076 41.1203C57.9537 41.1596 57.4565 41.1096 57.0158 40.9702C56.5807 40.8331 56.2017 40.6485 55.8788 40.4165L56.648 39.1657C56.8441 39.2761 57.0836 39.3955 57.3665 39.5241C57.6511 39.6566 57.9934 39.7293 58.3935 39.7424C58.7992 39.7576 59.274 39.648 59.8179 39.4133C60.5457 39.0994 61.0703 38.6642 61.3919 38.1078C61.7134 37.5514 61.7121 36.8975 61.388 36.1463L60.598 34.3151L60.4806 34.3657C60.4498 34.574 60.3928 34.8399 60.3096 35.1635C60.2287 35.4815 60.0546 35.8096 59.7874 36.1476C59.5224 36.48 59.0965 36.7729 58.5096 37.0261C57.7818 37.34 57.0541 37.4498 56.3264 37.3553C55.6027 37.2591 54.9308 36.9549 54.3107 36.4427C53.6946 35.9288 53.1839 35.2024 52.7788 34.2633C52.3804 33.3399 52.1959 32.4658 52.2253 31.6409C52.253 30.8122 52.4753 30.0851 52.8924 29.4596C53.3077 28.8302 53.8949 28.3518 54.654 28.0244C55.2409 27.7712 55.7488 27.6681 56.1775 27.7152C56.6084 27.7567 56.969 27.861 57.2593 28.0282C57.5518 28.1898 57.7826 28.3269 57.9519 28.4395L58.0927 28.3787L57.4749 26.9466L58.8131 26.3693L62.8136 35.6426C63.1479 36.4174 63.2436 37.1233 63.1007 37.7604C62.9635 38.3997 62.6484 38.9603 62.1555 39.4421C61.6681 39.9262 61.0645 40.3235 60.3445 40.6341ZM58.1606 35.7008C58.7162 35.4611 59.1309 35.1314 59.4046 34.7116C59.6783 34.2918 59.812 33.8002 59.8056 33.2368C59.7993 32.6734 59.6526 32.059 59.3656 31.3939C59.0854 30.7443 58.7403 30.2133 58.3303 29.8008C57.9203 29.3883 57.4628 29.1239 56.9578 29.0076C56.4528 28.8913 55.9186 28.9547 55.3551 29.1977C54.7682 29.4509 54.3433 29.8106 54.0803 30.2768C53.8212 30.7413 53.7019 31.2661 53.7223 31.8514C53.7466 32.4349 53.8905 33.0319 54.1538 33.6423C54.4239 34.2683 54.7605 34.7798 55.1638 35.1767C55.5693 35.5679 56.0248 35.817 56.5303 35.9237C57.0381 36.0249 57.5815 35.9506 58.1606 35.7008Z" fill="black"/>
<path d="M66.6489 34.6922L64.872 25.0361L66.3556 24.7631L68.1325 34.4192L66.6489 34.6922ZM65.3303 23.2879C65.0411 23.3412 64.7736 23.2886 64.5278 23.1301C64.2862 22.971 64.14 22.7531 64.0891 22.4765C64.0382 22.1998 64.0973 21.9442 64.2664 21.7094C64.4397 21.4739 64.6709 21.3295 64.9601 21.2763C65.2493 21.2231 65.5147 21.276 65.7563 21.4352C66.0021 21.5936 66.1504 21.8112 66.2013 22.0878C66.2522 22.3644 66.191 22.6204 66.0177 22.856C65.8486 23.0907 65.6195 23.2347 65.3303 23.2879Z" fill="black"/>
<path d="M78.2974 24.0637L78.2863 25.3421L73.1985 25.298L73.2095 24.0196L78.2974 24.0637ZM74.7128 21.6803L76.2213 21.6934L76.1402 31.051C76.1365 31.4771 76.1955 31.7972 76.3172 32.0114C76.4433 32.2213 76.604 32.3633 76.7994 32.4374C76.9991 32.5073 77.2097 32.5433 77.4313 32.5452C77.5975 32.5466 77.7339 32.5393 77.8406 32.5232C77.9473 32.5028 78.0327 32.4865 78.0967 32.4742L78.3917 33.832C78.2891 33.8694 78.1461 33.9065 77.9625 33.9433C77.7789 33.9843 77.5465 34.0036 77.2652 34.0012C76.8391 33.9975 76.4223 33.9023 76.0148 33.7155C75.6116 33.5287 75.2774 33.2467 75.0122 32.8694C74.7512 32.4921 74.6232 32.018 74.6282 31.447L74.7128 21.6803Z" fill="black"/>
<path d="M85.4176 35.3492C84.815 35.1944 84.2973 34.9405 83.8644 34.5874C83.4325 34.2302 83.1278 33.7978 82.9501 33.2902C82.7735 32.7785 82.7647 32.2131 82.9236 31.594C83.0635 31.0492 83.2842 30.6351 83.5857 30.3517C83.8883 30.0642 84.2441 29.8696 84.653 29.7678C85.0619 29.666 85.4952 29.6232 85.9529 29.6396C86.4159 29.6528 86.8756 29.6873 87.3321 29.7429C87.929 29.8169 88.4118 29.8815 88.7804 29.9365C89.1542 29.9885 89.4359 29.9882 89.6253 29.9357C89.8189 29.8842 89.9459 29.7408 90.0063 29.5055L90.0191 29.456C90.1759 28.8451 90.1306 28.3275 89.8832 27.9033C89.6398 27.48 89.1818 27.182 88.509 27.0093C87.8115 26.8302 87.2254 26.8426 86.7507 27.0463C86.2761 27.25 85.9137 27.5045 85.6637 27.8099L84.4041 26.9586C84.8001 26.4443 85.2458 26.0792 85.7412 25.8632C86.2418 25.6441 86.7541 25.5337 87.2781 25.5318C87.8073 25.5269 88.3113 25.5859 88.7901 25.7088C89.0955 25.7872 89.4368 25.9145 89.814 26.0905C90.1964 26.2634 90.5447 26.509 90.8589 26.8273C91.1773 27.1466 91.4026 27.563 91.5347 28.0765C91.6669 28.59 91.636 29.2244 91.4421 29.9797L89.8335 36.2453L88.3724 35.8701L88.703 34.5824L88.6287 34.5633C88.4766 34.7442 88.2548 34.9227 87.9633 35.0986C87.6718 35.2745 87.3129 35.3958 86.8866 35.4623C86.4604 35.5289 85.9707 35.4911 85.4176 35.3492ZM85.9775 34.0938C86.5553 34.2422 87.0715 34.2537 87.526 34.1284C87.9847 34.0042 88.3612 33.7885 88.6557 33.4813C88.9542 33.1752 89.1544 32.824 89.2561 32.4278L89.5994 31.0905C89.5185 31.1489 89.3648 31.182 89.1384 31.1899C88.9172 31.1947 88.6645 31.1848 88.3804 31.1603C88.1016 31.1327 87.8299 31.1026 87.5655 31.0699C87.3063 31.0341 87.0957 31.0064 86.9335 30.9868C86.5411 30.9389 86.1655 30.9282 85.8066 30.9549C85.453 30.9785 85.147 31.0737 84.8886 31.2405C84.6354 31.4043 84.4611 31.6719 84.3657 32.0434C84.2354 32.5511 84.3246 32.9832 84.6335 33.3396C84.9475 33.693 85.3955 33.9444 85.9775 34.0938Z" fill="black"/>
<path d="M101.517 27.3767L95.5113 39.0087L94.1709 38.3166L100.177 26.6846L101.517 27.3767Z" fill="black"/>
<path d="M112.537 45.7053L114.762 43.9815L112.08 43.1228L112.511 41.9636L115.118 43.0515L114.513 40.2923L115.731 40.0752L116.096 42.8674L118.19 40.9866L118.976 41.9287L116.752 43.6525L119.434 44.5113L119.003 45.6705L116.396 44.5825L117 47.3417L115.783 47.5588L115.417 44.7667L113.324 46.6475L112.537 45.7053Z" fill="#FFC93E"/>
<path d="M116.442 66.1163C116.292 65.5127 116.268 64.9365 116.373 64.3877C116.481 63.8378 116.716 63.364 117.078 62.9661C117.444 62.5671 117.937 62.2902 118.557 62.1351C119.103 61.9987 119.572 61.9956 119.965 62.1259C120.362 62.2551 120.702 62.4752 120.986 62.7863C121.271 63.0974 121.515 63.4581 121.718 63.8684C121.927 64.2819 122.115 64.7025 122.284 65.1304C122.503 65.6906 122.676 66.1458 122.803 66.4962C122.936 66.8497 123.07 67.0972 123.206 67.2388C123.344 67.3845 123.53 67.428 123.766 67.369L123.816 67.3566C124.427 67.2037 124.861 66.9174 125.116 66.4978C125.373 66.0823 125.417 65.5377 125.248 64.8638C125.073 64.1651 124.784 63.6556 124.378 63.3352C123.973 63.0148 123.577 62.8174 123.189 62.7429L123.338 61.2299C123.979 61.3332 124.512 61.5513 124.938 61.8841C125.369 62.22 125.71 62.6179 125.961 63.0779C126.218 63.5409 126.406 64.0122 126.526 64.4917C126.602 64.7977 126.653 65.1584 126.677 65.5739C126.707 65.9924 126.657 66.4157 126.527 66.8436C126.398 67.2756 126.139 67.6719 125.75 68.0326C125.362 68.3933 124.789 68.6682 124.033 68.8573L117.757 70.4261L117.391 68.9626L118.681 68.6402L118.662 68.5658C118.431 68.5182 118.168 68.4082 117.875 68.2356C117.581 68.063 117.304 67.8051 117.042 67.4619C116.781 67.1188 116.581 66.6702 116.442 66.1163ZM117.813 66.0109C117.958 66.5897 118.193 67.0491 118.52 67.3891C118.847 67.7333 119.216 67.9617 119.627 68.0744C120.038 68.1912 120.442 68.1999 120.839 68.1007L122.178 67.7659C122.089 67.7225 121.986 67.6031 121.872 67.4078C121.762 67.2155 121.65 66.9887 121.537 66.7272C121.428 66.4688 121.325 66.2156 121.228 65.9675C121.136 65.7226 121.06 65.5241 121 65.3722C120.856 65.0043 120.686 64.6689 120.492 64.3661C120.303 64.0663 120.073 63.8426 119.803 63.6948C119.539 63.5501 119.221 63.5242 118.849 63.6172C118.34 63.7443 118.003 64.0286 117.836 64.4699C117.675 64.9143 117.667 65.428 117.813 66.0109Z" fill="black"/>
<path d="M114.091 78.7944C114.115 78.0661 114.229 77.443 114.433 76.9252C114.633 76.4073 114.89 75.9786 115.204 75.6391C115.513 75.3038 115.842 75.0394 116.189 74.846L116.993 76.0743C116.81 76.2048 116.6 76.3707 116.363 76.572C116.122 76.7731 115.911 77.0519 115.729 77.4084C115.542 77.7691 115.439 78.2454 115.42 78.8374C115.395 79.6296 115.565 80.2896 115.932 80.8173C116.298 81.3451 116.891 81.6222 117.708 81.6487L119.702 81.7131L119.706 81.5854C119.53 81.4688 119.314 81.3041 119.057 81.0911C118.803 80.8825 118.581 80.5854 118.388 80.1997C118.2 79.8184 118.117 79.3084 118.137 78.6695C118.163 77.8773 118.373 77.1721 118.769 76.5539C119.164 75.9399 119.725 75.4613 120.452 75.1182C121.179 74.7793 122.054 74.6264 123.076 74.6595C124.082 74.692 124.951 74.8971 125.685 75.2747C126.423 75.6524 126.986 76.1631 127.375 76.8067C127.768 77.4504 127.951 78.1854 127.924 79.0117C127.903 79.6506 127.78 80.1539 127.555 80.5219C127.334 80.8942 127.087 81.1761 126.812 81.3676C126.541 81.5635 126.319 81.714 126.145 81.8193L126.14 81.9726L127.699 82.023L127.652 83.4796L117.557 83.1531C116.714 83.1258 116.035 82.912 115.519 82.5116C114.999 82.1153 114.626 81.5916 114.399 80.9404C114.169 80.2934 114.066 79.5781 114.091 78.7944ZM119.485 78.9177C119.466 79.5225 119.587 80.0381 119.851 80.4645C120.114 80.8908 120.502 81.221 121.015 81.455C121.527 81.6891 122.146 81.8178 122.87 81.8412C123.577 81.8641 124.204 81.7778 124.752 81.5823C125.3 81.3869 125.734 81.0854 126.054 80.6779C126.374 80.2705 126.544 79.7601 126.564 79.1467C126.584 78.5079 126.44 77.9703 126.13 77.5339C125.82 77.1017 125.396 76.7704 124.857 76.5398C124.319 76.3135 123.718 76.1895 123.053 76.168C122.372 76.146 121.766 76.233 121.235 76.429C120.708 76.6294 120.289 76.9356 119.977 77.3476C119.67 77.764 119.506 78.2874 119.485 78.9177Z" fill="black"/>
<path d="M115.509 90.6578C115.797 89.7568 116.244 89.0431 116.851 88.5169C117.461 87.9961 118.181 87.674 119.013 87.5508C119.847 87.4328 120.743 87.5271 121.701 87.8336C122.658 88.14 123.447 88.5846 124.066 89.1674C124.687 89.7555 125.103 90.4297 125.311 91.19C125.523 91.9556 125.493 92.7605 125.223 93.6047C125.067 94.0917 124.832 94.5467 124.518 94.9697C124.204 95.3926 123.802 95.7404 123.312 96.0132C122.826 96.2873 122.248 96.4445 121.577 96.485C120.906 96.5255 120.135 96.4061 119.262 96.1269L118.653 95.9322L120.959 88.7239L122.201 89.1212L120.363 94.8684C120.89 95.0372 121.395 95.0823 121.876 95.0037C122.357 94.9291 122.778 94.7374 123.141 94.4284C123.503 94.1235 123.766 93.7113 123.933 93.1918C124.116 92.6195 124.132 92.0789 123.982 91.5699C123.834 91.0664 123.571 90.6309 123.192 90.2635C122.813 89.8962 122.365 89.63 121.85 89.4651L121.022 89.2002C120.316 88.9743 119.678 88.9045 119.109 88.9909C118.543 89.0827 118.062 89.3068 117.666 89.6634C117.274 90.0212 116.985 90.4903 116.799 91.0707C116.679 91.4482 116.622 91.806 116.63 92.1441C116.641 92.4877 116.719 92.8055 116.862 93.0975C117.01 93.3909 117.227 93.6503 117.513 93.876L116.679 95.1394C116.255 94.8427 115.919 94.4647 115.673 94.0054C115.43 93.5475 115.29 93.033 115.254 92.462C115.221 91.8924 115.306 91.2909 115.509 90.6578Z" fill="black"/>
<path d="M116.696 102.4L111.779 99.1294L112.614 97.8733L120.789 103.311L119.982 104.524L118.705 103.675L118.634 103.781C118.922 104.249 119.062 104.762 119.054 105.319C119.05 105.88 118.842 106.469 118.432 107.086C118.064 107.639 117.628 108.048 117.125 108.312C116.625 108.579 116.07 108.675 115.459 108.601C114.851 108.53 114.199 108.263 113.504 107.8L108.309 104.345L109.145 103.089L114.254 106.488C114.897 106.915 115.508 107.081 116.088 106.986C116.672 106.893 117.157 106.555 117.544 105.973C117.811 105.573 117.962 105.156 117.998 104.725C118.032 104.297 117.943 103.882 117.729 103.479C117.516 103.076 117.172 102.717 116.696 102.4Z" fill="black"/>
<path d="M102.238 109.769C102.938 109.172 103.682 108.822 104.47 108.721C105.258 108.62 106.036 108.744 106.803 109.091C107.57 109.439 108.272 109.986 108.909 110.731C109.556 111.49 109.988 112.278 110.204 113.096C110.42 113.92 110.417 114.71 110.194 115.467C109.971 116.229 109.522 116.898 108.848 117.473C108.323 117.921 107.766 118.228 107.179 118.393C106.592 118.558 106.014 118.581 105.446 118.46C104.878 118.34 104.363 118.074 103.9 117.663L105.047 116.683C105.425 116.949 105.877 117.084 106.402 117.089C106.927 117.101 107.443 116.891 107.948 116.459C108.396 116.077 108.688 115.626 108.826 115.105C108.964 114.59 108.946 114.041 108.775 113.459C108.603 112.883 108.276 112.314 107.794 111.75C107.302 111.173 106.782 110.748 106.236 110.475C105.686 110.205 105.143 110.094 104.607 110.142C104.068 110.193 103.572 110.413 103.118 110.8C102.82 111.054 102.593 111.337 102.439 111.648C102.284 111.96 102.206 112.284 102.203 112.623C102.201 112.961 102.28 113.297 102.441 113.63L101.294 114.609C100.982 114.113 100.804 113.579 100.758 113.007C100.712 112.441 100.81 111.876 101.051 111.312C101.291 110.754 101.687 110.239 102.238 109.769Z" fill="black"/>
<path d="M93.4643 111.519C93.6968 111.412 93.913 111.337 94.1128 111.292C94.3109 111.244 94.4528 111.221 94.5385 111.224L94.7431 112.592C94.3709 112.66 94.0622 112.763 93.8171 112.904C93.572 113.044 93.3977 113.262 93.2941 113.558C93.1848 113.852 93.1506 114.263 93.1915 114.793L93.255 115.607L100.664 123.07L99.176 123.751L93.4554 117.765L93.3624 117.808L94.1543 126.05L92.6664 126.731L91.7737 114.767C91.7331 114.228 91.7696 113.75 91.8831 113.332C91.9949 112.911 92.1837 112.55 92.4495 112.25C92.7115 111.952 93.0497 111.708 93.4643 111.519Z" fill="black"/>
<defs>
<filter id="filter0_b_237_313" x="-50" y="-50" width="250" height="250" filterUnits="userSpaceOnUse" color-interpolation-filters="sRGB">
<feFlood flood-opacity="0" result="BackgroundImageFix"/>
<feGaussianBlur in="BackgroundImage" stdDeviation="25"/>
<feComposite in2="SourceAlpha" operator="in" result="effect1_backgroundBlur_237_313"/>
<feBlend mode="normal" in="SourceGraphic" in2="effect1_backgroundBlur_237_313" result="shape"/>
</filter>
</defs>
</svg>
