<svg width="196" height="64" viewBox="0 0 196 64" fill="none" xmlns="http://www.w3.org/2000/svg">
<path d="M190.793 56.083C192.283 41.3025 194.546 20.9203 191.964 6.51894C147.861 5.49349 103.884 4.79748 59.7471 5.7617C42.9986 6.12763 24.9479 9.23586 8.29081 7.33007C8.91317 20.5408 8.93221 33.7341 9.4492 46.9247C9.66096 52.3266 11.5893 58.0983 11.0114 63.4975C60.3971 63.1253 109.823 58.6167 159.242 60.2232C168.715 60.5313 178.288 59.0975 187.758 60.2301C162.785 58.1172 137.251 59.9542 112.222 60.2702C95.4896 60.4816 78.7529 57.9553 61.9608 58.0788C46.083 58.1956 30.2219 61.3563 14.3897 61.1482C10.5679 42.1468 5.58714 22.8068 3.13548 3.56043C13.2265 3.34905 23.3047 1.94802 33.3786 1.8654C87.0038 1.42544 140.56 2.16905 194.119 4.33676C194.027 21.3718 190.037 37.8141 189.002 54.6755C187.572 37.1489 191.152 19.5971 190.147 2.12502C183.551 0.600051 175.856 1.61522 169.139 1.50114C151.44 1.20022 133.925 0.844349 116.226 1.38371C93.9661 2.06189 71.8138 3.08148 49.5576 4.08008C34.3027 4.76435 17.2926 3.5036 2.28638 7.11617C3.84237 25.6747 5.68939 44.2395 7.46361 62.7648" stroke="white" stroke-miterlimit="1.5" stroke-linecap="round" stroke-linejoin="round"/>
</svg>
