<svg width="174" height="169" viewBox="0 0 174 169" fill="none" xmlns="http://www.w3.org/2000/svg">
<path d="M52.8289 1.18294C53.3854 0.944909 53.9449 0.71252 54.5073 0.48584H119.493C120.055 0.71252 120.615 0.944909 121.171 1.18294H52.8289Z" fill="white"/>
<path d="M39.7522 8.15389C40.1147 7.91889 40.4791 7.68652 40.8453 7.45679H133.155C133.521 7.68652 133.885 7.91889 134.248 8.15389H39.7522Z" fill="white"/>
<path d="M30.4258 15.1248C30.6989 14.8908 30.9735 14.6584 31.2495 14.4277H142.751C143.027 14.6584 143.301 14.8908 143.574 15.1248H30.4258Z" fill="white"/>
<path d="M23.178 22.0958C23.3944 21.8622 23.6122 21.6299 23.8312 21.3987H150.169C150.388 21.6299 150.606 21.8622 150.822 22.0958H23.178Z" fill="white"/>
<path d="M17.3586 29.0668C17.5337 28.8335 17.7099 28.6011 17.8872 28.3697H156.113C156.29 28.6011 156.466 28.8335 156.641 29.0668H17.3586Z" fill="white"/>
<path d="M12.6354 36.0377C12.7775 35.8046 12.9206 35.5723 13.0647 35.3406H160.935C161.079 35.5723 161.223 35.8046 161.365 36.0377H12.6354Z" fill="white"/>
<path d="M8.81312 43.0087C8.92733 42.7757 9.04254 42.5433 9.15875 42.3116H164.841C164.957 42.5433 165.073 42.7757 165.187 43.0087H8.81312Z" fill="white"/>
<path d="M5.76724 49.9796C5.85702 49.7468 5.94778 49.5144 6.0395 49.2825H167.961C168.052 49.5144 168.143 49.7468 168.233 49.9796H5.76724Z" fill="white"/>
<path d="M3.41446 56.9506C3.48214 56.7178 3.55077 56.4854 3.62034 56.2535H170.38C170.449 56.4854 170.518 56.7178 170.586 56.9506H3.41446Z" fill="white"/>
<path d="M1.69747 63.9215C1.74465 63.6888 1.79277 63.4565 1.8418 63.2244H172.158C172.207 63.4565 172.255 63.6888 172.303 63.9215H1.69747Z" fill="white"/>
<path d="M0.576552 70.8925C0.604345 70.6598 0.633054 70.4275 0.662674 70.1954H173.337C173.367 70.4275 173.396 70.6598 173.423 70.8925H0.576552Z" fill="white"/>
<path d="M0.0246406 77.8634C0.0337808 77.6308 0.0438317 77.3985 0.05479 77.1663H173.945C173.956 77.3985 173.966 77.6308 173.975 77.8634H0.0246406Z" fill="white"/>
<path d="M0.0246406 84.8344C0.0155188 84.6023 0.0073041 84.3699 0 84.1373H174C173.993 84.3699 173.984 84.6023 173.975 84.8344H0.0246406Z" fill="white"/>
<path d="M0.576552 91.8053C0.548826 91.5733 0.522011 91.3409 0.496111 91.1082H173.504C173.478 91.3409 173.451 91.5733 173.423 91.8053H0.576552Z" fill="white"/>
<path d="M1.69747 98.7763C1.65042 98.5443 1.60429 98.3119 1.55909 98.0792H172.441C172.396 98.3119 172.35 98.5443 172.303 98.7763H1.69747Z" fill="white"/>
<path d="M3.41446 105.747C3.34701 105.515 3.28049 105.283 3.21492 105.05H170.785C170.72 105.283 170.653 105.515 170.586 105.747H3.41446Z" fill="white"/>
<path d="M5.76724 112.718C5.67782 112.486 5.58937 112.254 5.50188 112.021H168.498C168.411 112.254 168.322 112.486 168.233 112.718H5.76724Z" fill="white"/>
<path d="M8.81312 119.689C8.69949 119.457 8.58686 119.225 8.47523 118.992H165.525C165.413 119.225 165.301 119.457 165.187 119.689H8.81312Z" fill="white"/>
<path d="M12.6354 126.66C12.4943 126.428 12.3542 126.196 12.2152 125.963H161.785C161.646 126.196 161.506 126.428 161.365 126.66H12.6354Z" fill="white"/>
<path d="M17.3586 133.631C17.185 133.4 17.0124 133.167 16.841 132.934H157.159C156.988 133.167 156.815 133.4 156.641 133.631H17.3586Z" fill="white"/>
<path d="M23.178 140.602C22.9637 140.371 22.7506 140.138 22.5388 139.905H151.461C151.249 140.138 151.036 140.371 150.822 140.602H23.178Z" fill="white"/>
<path d="M30.4258 147.573C30.1565 147.342 29.8887 147.11 29.6222 146.876H144.378C144.111 147.11 143.843 147.342 143.574 147.573H30.4258Z" fill="white"/>
<path d="M39.7522 154.544C39.3975 154.314 39.0447 154.082 38.6937 153.847H135.306C134.955 154.082 134.602 154.314 134.248 154.544H39.7522Z" fill="white"/>
<path d="M52.8289 161.515C52.2976 161.288 51.769 161.055 51.2432 160.818H122.757C122.231 161.055 121.702 161.288 121.171 161.515H52.8289Z" fill="white"/>
<path d="M98.0627 167.789C94.4399 168.249 90.7476 168.486 87 168.486C83.2524 168.486 79.5601 168.249 75.9373 167.789H98.0627Z" fill="white"/>
</svg>
