<svg width="32" height="32" viewBox="0 0 32 32" fill="none" xmlns="http://www.w3.org/2000/svg">
<rect width="32" height="32" fill="#F5F5F5"/>
<g clip-path="url(#clip0_0_1)">
<rect width="1440" height="5850" transform="translate(-130 -2933)" fill="white"/>
<g filter="url(#filter0_f_0_1)">
<circle cx="-7" cy="-440" r="317" fill="#FFD6D6"/>
</g>
<path fill-rule="evenodd" clip-rule="evenodd" d="M16 32C24.8366 32 32 24.8366 32 16C32 7.16344 24.8366 0 16 0C7.16344 0 0 7.16344 0 16C0 24.8366 7.16344 32 16 32ZM15.6318 19.8961L21.8379 13.4961L20.4021 12.1039L14.8858 17.7926L11.5695 14.6357L10.1905 16.0843L14.2245 19.9243L14.9421 20.6074L15.6318 19.8961Z" fill="#54BD95"/>
</g>
<defs>
<filter id="filter0_f_0_1" x="-1324" y="-1757" width="2634" height="2634" filterUnits="userSpaceOnUse" color-interpolation-filters="sRGB">
<feFlood flood-opacity="0" result="BackgroundImageFix"/>
<feBlend mode="normal" in="SourceGraphic" in2="BackgroundImageFix" result="shape"/>
<feGaussianBlur stdDeviation="500" result="effect1_foregroundBlur_0_1"/>
</filter>
<clipPath id="clip0_0_1">
<rect width="1440" height="5850" fill="white" transform="translate(-130 -2933)"/>
</clipPath>
</defs>
</svg>
