<svg width="78" height="78" viewBox="0 0 78 78" fill="none" xmlns="http://www.w3.org/2000/svg">
<rect width="78" height="78" fill="#F5F5F5"/>
<g clip-path="url(#clip0_0_1)">
<rect width="1440" height="5850" transform="translate(-792 -1553)" fill="white"/>
<g filter="url(#filter0_f_0_1)">
<circle cx="-669" cy="940" r="317" fill="#FFD6D6"/>
</g>
<g filter="url(#filter1_f_0_1)">
<circle cx="648" cy="-966" r="317" fill="#54BE96"/>
</g>
<g filter="url(#filter2_f_0_1)">
<circle cx="-99" cy="-1017" r="317" fill="white"/>
</g>
<rect x="-792" y="-359" width="1440" height="541" fill="#F9F8FE"/>
<g filter="url(#filter3_d_0_1)">
<rect x="9" y="5" width="60" height="60" fill="white"/>
</g>
<path d="M46.5 23.75C45.5054 23.75 44.5516 24.1451 43.8483 24.8483C43.1451 25.5516 42.75 26.5054 42.75 27.5V42.5C42.75 43.4946 43.1451 44.4484 43.8483 45.1517C44.5516 45.8549 45.5054 46.25 46.5 46.25C47.4946 46.25 48.4484 45.8549 49.1517 45.1517C49.8549 44.4484 50.25 43.4946 50.25 42.5C50.25 41.5054 49.8549 40.5516 49.1517 39.8483C48.4484 39.1451 47.4946 38.75 46.5 38.75H31.5C30.5054 38.75 29.5516 39.1451 28.8483 39.8483C28.1451 40.5516 27.75 41.5054 27.75 42.5C27.75 43.4946 28.1451 44.4484 28.8483 45.1517C29.5516 45.8549 30.5054 46.25 31.5 46.25C32.4946 46.25 33.4484 45.8549 34.1517 45.1517C34.8549 44.4484 35.25 43.4946 35.25 42.5V27.5C35.25 26.5054 34.8549 25.5516 34.1517 24.8483C33.4484 24.1451 32.4946 23.75 31.5 23.75C30.5054 23.75 29.5516 24.1451 28.8483 24.8483C28.1451 25.5516 27.75 26.5054 27.75 27.5C27.75 28.4946 28.1451 29.4484 28.8483 30.1517C29.5516 30.8549 30.5054 31.25 31.5 31.25H46.5C47.4946 31.25 48.4484 30.8549 49.1517 30.1517C49.8549 29.4484 50.25 28.4946 50.25 27.5C50.25 26.5054 49.8549 25.5516 49.1517 24.8483C48.4484 24.1451 47.4946 23.75 46.5 23.75Z" stroke="#54BD95" stroke-width="2" stroke-linecap="round" stroke-linejoin="round"/>
</g>
<defs>
<filter id="filter0_f_0_1" x="-1986" y="-377" width="2634" height="2634" filterUnits="userSpaceOnUse" color-interpolation-filters="sRGB">
<feFlood flood-opacity="0" result="BackgroundImageFix"/>
<feBlend mode="normal" in="SourceGraphic" in2="BackgroundImageFix" result="shape"/>
<feGaussianBlur stdDeviation="500" result="effect1_foregroundBlur_0_1"/>
</filter>
<filter id="filter1_f_0_1" x="-669" y="-2283" width="2634" height="2634" filterUnits="userSpaceOnUse" color-interpolation-filters="sRGB">
<feFlood flood-opacity="0" result="BackgroundImageFix"/>
<feBlend mode="normal" in="SourceGraphic" in2="BackgroundImageFix" result="shape"/>
<feGaussianBlur stdDeviation="500" result="effect1_foregroundBlur_0_1"/>
</filter>
<filter id="filter2_f_0_1" x="-1416" y="-2334" width="2634" height="2634" filterUnits="userSpaceOnUse" color-interpolation-filters="sRGB">
<feFlood flood-opacity="0" result="BackgroundImageFix"/>
<feBlend mode="normal" in="SourceGraphic" in2="BackgroundImageFix" result="shape"/>
<feGaussianBlur stdDeviation="500" result="effect1_foregroundBlur_0_1"/>
</filter>
<filter id="filter3_d_0_1" x="0" y="0" width="78" height="78" filterUnits="userSpaceOnUse" color-interpolation-filters="sRGB">
<feFlood flood-opacity="0" result="BackgroundImageFix"/>
<feColorMatrix in="SourceAlpha" type="matrix" values="0 0 0 0 0 0 0 0 0 0 0 0 0 0 0 0 0 0 127 0" result="hardAlpha"/>
<feOffset dy="4"/>
<feGaussianBlur stdDeviation="4.5"/>
<feComposite in2="hardAlpha" operator="out"/>
<feColorMatrix type="matrix" values="0 0 0 0 0 0 0 0 0 0 0 0 0 0 0 0 0 0 0.05 0"/>
<feBlend mode="normal" in2="BackgroundImageFix" result="effect1_dropShadow_0_1"/>
<feBlend mode="normal" in="SourceGraphic" in2="effect1_dropShadow_0_1" result="shape"/>
</filter>
<clipPath id="clip0_0_1">
<rect width="1440" height="5850" fill="white" transform="translate(-792 -1553)"/>
</clipPath>
</defs>
</svg>
