<svg width="364" height="430" viewBox="0 0 364 430" fill="none" xmlns="http://www.w3.org/2000/svg">
<rect width="364" height="430" fill="#F5F5F5"/>
<g clip-path="url(#clip0_0_1)">
<rect width="1440" height="5850" transform="translate(-130 -2061)" fill="white"/>
<g filter="url(#filter0_f_0_1)">
<circle cx="-7" cy="432" r="317" fill="#FFD6D6"/>
</g>
<g filter="url(#filter1_f_0_1)">
<circle cx="1310" cy="1534" r="317" fill="#54BE96"/>
</g>
<rect width="364" height="430" rx="20" fill="#F9F8FE"/>
<rect x="38" y="116" width="326" height="314" fill="#F5FAFA"/>
<rect x="107" y="55" width="235" height="15" fill="#DBE5FA"/>
<rect x="107" y="80" width="214" height="15" fill="#DBE5FA"/>
<rect x="107" y="105" width="190" height="15" fill="#DBE5FA"/>
<rect x="107" y="130" width="168" height="15" fill="#DBE5FA"/>
<rect x="107" y="175" width="235" height="15" fill="#DBE5FA"/>
<rect x="107" y="200" width="214" height="15" fill="#DBE5FA"/>
<rect x="107" y="225" width="190" height="15" fill="#DBE5FA"/>
<rect x="107" y="250" width="168" height="15" fill="#DBE5FA"/>
<rect x="22" y="55" width="63" height="90" rx="2" fill="#54BD95"/>
<rect x="22" y="180" width="63" height="90" rx="2" fill="#0F8CE9"/>
<circle cx="190" cy="70" r="25" transform="rotate(180 190 70)" fill="#54BD95"/>
<path d="M242.5 60.2588L230 40L284 49.3882L240 82L242.5 60.2588Z" fill="#54BD95" stroke="white" stroke-width="2"/>
<circle cx="67" cy="345" r="45" fill="#DBE5FA"/>
<circle cx="182" cy="345" r="45" fill="#0F8CE9"/>
<circle cx="297" cy="345" r="45" fill="#54BD95"/>
<circle cx="317" cy="345" r="4" fill="white"/>
<circle cx="302" cy="345" r="6" fill="white"/>
<circle cx="282" cy="345" r="9" fill="white"/>
</g>
<defs>
<filter id="filter0_f_0_1" x="-1324" y="-885" width="2634" height="2634" filterUnits="userSpaceOnUse" color-interpolation-filters="sRGB">
<feFlood flood-opacity="0" result="BackgroundImageFix"/>
<feBlend mode="normal" in="SourceGraphic" in2="BackgroundImageFix" result="shape"/>
<feGaussianBlur stdDeviation="500" result="effect1_foregroundBlur_0_1"/>
</filter>
<filter id="filter1_f_0_1" x="-7" y="217" width="2634" height="2634" filterUnits="userSpaceOnUse" color-interpolation-filters="sRGB">
<feFlood flood-opacity="0" result="BackgroundImageFix"/>
<feBlend mode="normal" in="SourceGraphic" in2="BackgroundImageFix" result="shape"/>
<feGaussianBlur stdDeviation="500" result="effect1_foregroundBlur_0_1"/>
</filter>
<clipPath id="clip0_0_1">
<rect width="1440" height="5850" fill="white" transform="translate(-130 -2061)"/>
</clipPath>
</defs>
</svg>
